<svg width="40" height="40" viewBox="0 0 40 40" fill="none" xmlns="http://www.w3.org/2000/svg">
<path fill-rule="evenodd" clip-rule="evenodd" d="M2.5 19.9999C2.5 19.6683 2.6317 19.3504 2.86612 19.116C3.10054 18.8816 3.41848 18.7499 3.75 18.7499H33.2325L25.365 10.8849C25.1303 10.6502 24.9984 10.3318 24.9984 9.99987C24.9984 9.66793 25.1303 9.34959 25.365 9.11487C25.5997 8.88015 25.9181 8.74829 26.25 8.74829C26.5819 8.74829 26.9003 8.88015 27.135 9.11487L37.135 19.1149C37.2514 19.231 37.3438 19.3689 37.4068 19.5208C37.4698 19.6726 37.5022 19.8355 37.5022 19.9999C37.5022 20.1643 37.4698 20.3271 37.4068 20.479C37.3438 20.6308 37.2514 20.7688 37.135 20.8849L27.135 30.8849C26.9003 31.1196 26.5819 31.2514 26.25 31.2514C25.9181 31.2514 25.5997 31.1196 25.365 30.8849C25.1303 30.6502 24.9984 30.3318 24.9984 29.9999C24.9984 29.6679 25.1303 29.3496 25.365 29.1149L33.2325 21.2499H3.75C3.41848 21.2499 3.10054 21.1182 2.86612 20.8838C2.6317 20.6493 2.5 20.3314 2.5 19.9999Z" fill="#924C2E"/>
</svg>
