<svg width="40" height="40" viewBox="0 0 40 40" fill="none" xmlns="http://www.w3.org/2000/svg">
<path fill-rule="evenodd" clip-rule="evenodd" d="M37.5 20.0001C37.5 20.3317 37.3683 20.6496 37.1339 20.884C36.8995 21.1184 36.5815 21.2501 36.25 21.2501L6.7675 21.2501L14.635 29.1151C14.8697 29.3498 15.0016 29.6682 15.0016 30.0001C15.0016 30.3321 14.8697 30.6504 14.635 30.8851C14.4003 31.1198 14.0819 31.2517 13.75 31.2517C13.4181 31.2517 13.0997 31.1198 12.865 30.8851L2.865 20.8851C2.74859 20.769 2.65623 20.6311 2.59322 20.4792C2.5302 20.3274 2.49776 20.1646 2.49776 20.0001C2.49776 19.8357 2.5302 19.6729 2.59322 19.5211C2.65623 19.3692 2.74859 19.2312 2.865 19.1151L12.865 9.11514C13.0997 8.88042 13.4181 8.74856 13.75 8.74856C14.0819 8.74856 14.4003 8.88042 14.635 9.11514C14.8697 9.34985 15.0016 9.6682 15.0016 10.0001C15.0016 10.3321 14.8697 10.6504 14.635 10.8851L6.7675 18.7501L36.25 18.7501C36.5815 18.7501 36.8995 18.8818 37.1339 19.1162C37.3683 19.3507 37.5 19.6686 37.5 20.0001Z" fill="currentColor"/>
</svg>
