<svg width="134" height="36" viewBox="0 0 134 36" fill="none" xmlns="http://www.w3.org/2000/svg">
<path d="M3.11686 0.280819C3.11686 0.280819 3.73719 0.459116 4.97784 0.815711C6.21478 1.17602 7.5743 1.94864 9.0564 3.13358C10.5385 4.31852 12.1209 5.69289 13.8036 7.25671C15.4825 8.82053 17.468 10.4085 19.7598 12.0206C22.0517 13.6327 25.5396 15.4918 30.2237 17.598C34.9077 19.7078 39.913 21.5279 45.2397 23.0583C50.5663 24.585 55.9096 25.6678 61.2697 26.3067C66.6261 26.9456 72.9649 27.2242 80.2863 27.1425C87.6076 27.057 93.4301 26.6986 97.7539 26.0671C102.078 25.4393 105.601 24.9119 108.324 24.4847C111.046 24.0575 113.453 23.6898 115.545 23.3815C117.64 23.0769 118.765 22.9153 118.921 22.8968C119.077 22.8819 119.233 22.893 119.389 22.9302C119.541 22.9673 119.684 23.0268 119.818 23.1085C119.952 23.1939 120.069 23.2961 120.169 23.4149C120.269 23.5375 120.349 23.6731 120.409 23.8217C120.465 23.9665 120.494 24.1188 120.498 24.2786C120.505 24.4346 120.487 24.5887 120.442 24.741C120.398 24.8933 120.331 25.0345 120.242 25.1645C120.152 25.2945 120.045 25.4059 119.918 25.4988C119.788 25.5916 119.649 25.6622 119.501 25.7105C119.352 25.7588 119.198 25.7829 119.038 25.7829C118.882 25.7792 118.728 25.7514 118.576 25.6994C118.427 25.6474 118.292 25.5731 118.169 25.4765C118.043 25.3799 117.937 25.2648 117.851 25.131C117.766 25.001 117.703 24.8599 117.662 24.7076C117.621 24.5516 117.606 24.3956 117.617 24.2396C117.628 24.0835 117.664 23.9312 117.723 23.7827C117.783 23.6378 117.864 23.5059 117.968 23.3871C118.072 23.2682 118.193 23.1698 118.331 23.0918C118.468 23.01 118.613 22.9543 118.765 22.9246C118.921 22.8912 119.077 22.8837 119.233 22.9023C119.389 22.9209 119.538 22.9655 119.679 23.036C119.824 23.1029 119.952 23.1921 120.063 23.3035C120.178 23.4112 120.271 23.5357 120.342 23.6768C120.416 23.818 120.465 23.9665 120.487 24.1225C120.509 24.2786 120.507 24.4346 120.481 24.5906C120.452 24.7466 120.4 24.8933 120.325 25.0308C120.247 25.1682 120.151 25.2908 120.035 25.3985C119.92 25.5062 119.79 25.5916 119.645 25.6548C119.501 25.7217 119.428 25.7532 119.428 25.7495C119.428 25.7495 118.442 26.1321 116.47 26.8973C114.501 27.6625 112.127 28.5558 109.349 29.5773C106.57 30.6025 102.884 31.4996 98.2887 32.2685C93.6939 33.0374 87.5779 33.5203 79.9408 33.7172C72.3074 33.9141 65.6343 33.6578 59.9213 32.9483C54.2084 32.2388 48.5326 31.0613 42.8939 29.4158C37.2516 27.7665 31.9082 25.7681 26.8639 23.4205C21.8195 21.0729 18.0437 18.9798 15.5364 17.1411C13.0291 15.3024 10.9935 13.6178 9.42971 12.0875C7.86218 10.5571 6.51009 9.25884 5.37344 8.19277C4.24051 7.1267 3.22459 6.13306 2.32567 5.21186C1.43418 4.28694 0.923433 3.77434 0.793424 3.67404C0.663415 3.57004 0.546408 3.45303 0.442401 3.32302C0.338394 3.19301 0.25296 3.05186 0.186098 2.89956C0.115522 2.74727 0.0653759 2.5894 0.0356596 2.42596C0.00594334 2.26252 -0.00520036 2.09908 0.00222871 1.93564C0.0133723 1.7722 0.0430886 1.61062 0.0913775 1.4509C0.139666 1.29117 0.206528 1.14073 0.291962 0.999581C0.377396 0.854714 0.479546 0.724705 0.598411 0.609555C0.713562 0.49069 0.84357 0.38854 0.988437 0.303106C1.12959 0.213957 1.28003 0.145238 1.43975 0.0969493C1.59576 0.0449459 1.75735 0.0133723 1.9245 0.00222871C2.08794 -0.00520036 2.25138 0.00594334 2.41482 0.0356596C2.57826 0.0653759 2.73612 0.113665 2.88842 0.180526C3.04072 0.247388 3.11686 0.280819 3.11686 0.280819Z" fill="#49423D"/>
<path d="M115.65 11.363C115.65 11.363 116.477 11.6509 118.13 12.2267C119.783 12.8024 121.206 13.3522 122.398 13.8759C123.59 14.4034 124.902 14.9996 126.332 15.6645C127.758 16.3331 128.948 16.9701 129.903 17.5756C130.858 18.1773 131.695 19.0131 132.416 20.0829C133.137 21.1527 133.475 22.4101 133.43 23.855C133.386 25.2962 132.784 26.6576 131.625 27.9391C130.47 29.2169 129.266 30.3462 128.014 31.3268C126.766 32.3074 125.37 33.2026 123.824 34.0124C122.283 34.8185 120.856 35.2883 119.545 35.4221C118.238 35.5521 117.511 35.6468 117.367 35.7062C117.218 35.7657 117.066 35.7991 116.91 35.8065C116.75 35.8177 116.594 35.8009 116.442 35.7564C116.289 35.7155 116.148 35.6505 116.018 35.5614C115.888 35.4722 115.775 35.3663 115.678 35.2438C115.585 35.1175 115.513 34.9782 115.461 34.8259C115.409 34.6773 115.383 34.525 115.383 34.369C115.383 34.2093 115.409 34.0551 115.461 33.9065C115.509 33.758 115.582 33.6205 115.678 33.4942C115.775 33.3679 115.888 33.2602 116.018 33.1711C116.148 33.0819 116.289 33.0169 116.442 32.976C116.594 32.9315 116.748 32.9148 116.904 32.9259C117.064 32.9333 117.216 32.9668 117.361 33.0262C117.51 33.0819 117.643 33.1618 117.762 33.2658C117.885 33.3661 117.985 33.4849 118.063 33.6224C118.145 33.7561 118.204 33.901 118.241 34.057C118.275 34.2093 118.282 34.3634 118.264 34.5194C118.249 34.6792 118.208 34.8296 118.141 34.9707C118.074 35.1156 117.987 35.2456 117.879 35.3608C117.771 35.4722 117.647 35.5651 117.506 35.6394C117.368 35.7137 117.222 35.7638 117.066 35.7898C116.91 35.8158 116.754 35.8158 116.598 35.7898C116.442 35.7638 116.293 35.7155 116.152 35.6449C116.014 35.5706 115.89 35.4759 115.779 35.3608C115.671 35.2456 115.584 35.1175 115.517 34.9763C115.45 34.8315 115.409 34.681 115.394 34.525C115.376 34.3653 115.383 34.2093 115.416 34.057C115.45 33.901 115.507 33.7561 115.589 33.6224C115.671 33.4886 115.773 33.3698 115.896 33.2658C116.014 33.1655 116.074 33.1153 116.074 33.1153C116.074 33.1153 116.438 32.5674 117.166 31.4717C117.89 30.3759 118.858 29.4027 120.069 28.552C121.28 27.6977 122.84 26.7505 124.749 25.7104C126.658 24.6704 127.301 23.8476 126.677 23.2421C126.049 22.6404 125.054 21.9996 123.691 21.3198C122.324 20.6438 120.96 19.9919 119.601 19.3641C118.241 18.7401 116.893 17.8616 115.556 16.7287C114.222 15.5957 113.489 14.9791 113.355 14.8788C113.217 14.7748 113.095 14.6578 112.987 14.5278C112.879 14.3978 112.788 14.2567 112.714 14.1044C112.64 13.9484 112.586 13.7868 112.553 13.6196C112.515 13.4562 112.501 13.2909 112.508 13.1237C112.515 12.9529 112.541 12.7857 112.586 12.6223C112.634 12.4588 112.699 12.3047 112.781 12.1598C112.866 12.0112 112.969 11.8756 113.087 11.7531C113.203 11.6305 113.333 11.5228 113.477 11.4299C113.619 11.337 113.771 11.2646 113.934 11.2126C114.094 11.1569 114.259 11.1216 114.43 11.1067C114.594 11.0919 114.759 11.0975 114.926 11.1235C115.097 11.1495 115.26 11.1959 115.416 11.2627C115.572 11.3296 115.65 11.363 115.65 11.363Z" fill="#49423D"/>
</svg>
