<svg width="85" height="188" viewBox="0 0 85 188" fill="none" xmlns="http://www.w3.org/2000/svg">
<path d="M32.0962 8.98361C32.0962 8.98361 32.3493 9.09513 32.8556 9.31818C33.3571 9.53737 33.7879 9.80393 34.148 10.1179C34.5042 10.4364 34.8903 10.7072 35.3063 10.9301C35.7265 11.1526 36.2708 11.5308 36.9393 12.0648C37.6073 12.5946 38.216 13.0183 38.7654 13.336C39.3191 13.6533 39.9504 14.0899 40.6596 14.6458C41.3733 15.2056 42.2194 16.1007 43.1976 17.3309C44.1763 18.5654 44.9903 19.738 45.6395 20.8487C46.2849 21.9642 46.8751 23.1555 47.4102 24.4229C47.9456 25.6945 48.3723 27.0213 48.6904 28.4033C49.0042 29.7856 49.2726 31.256 49.4954 32.8142C49.714 34.3728 49.9526 36.3522 50.2112 38.7524C50.4655 41.153 50.793 43.5103 51.1939 45.8243C51.5943 48.134 51.9464 50.4783 52.2502 52.8571C52.554 55.2359 53.0554 58.1434 53.7544 61.5795C54.4575 65.0152 55.0873 67.9407 55.6437 70.356C56.2043 72.7709 56.9124 75.1098 57.7681 77.3727C58.628 79.6352 59.4464 81.6141 60.2233 83.3094C61.0005 85.0089 61.8322 86.5553 62.7184 87.9486C63.6045 89.3419 64.413 90.5022 65.1439 91.4294C65.8748 92.3566 66.538 93.0649 67.1335 93.5542C67.729 94.0435 67.9672 94.0406 67.8479 93.5454C67.7243 93.0506 67.372 92.957 66.7907 93.2644C66.2053 93.5723 65.6746 93.9844 65.1988 94.5008C64.7273 95.0169 64.3652 95.6235 64.1124 96.3208C63.8597 97.0181 63.5289 97.9372 63.1201 99.0782C62.7069 100.22 62.3847 101.483 62.1533 102.869C61.922 104.255 61.6636 106.133 61.378 108.503C61.0929 110.877 60.8672 113.243 60.7009 115.601C60.5393 117.963 60.3035 120.268 59.9937 122.515C59.6796 124.763 59.3478 127.051 58.9983 129.379C58.6445 131.708 58.2866 134.061 57.9244 136.437C57.558 138.814 56.8224 142.045 55.7178 146.131C54.6174 150.215 53.4 154.15 52.0654 157.935C50.7305 161.715 49.4579 164.853 48.2477 167.347C47.0374 169.842 45.6274 171.922 44.0175 173.587C42.4076 175.252 40.803 176.582 39.2035 177.576C37.6083 178.571 35.9013 179.333 34.0823 179.863C32.2634 180.394 30.464 180.536 28.6843 180.29C26.9088 180.044 25.4306 179.83 24.2496 179.649C23.0686 179.467 22.4341 179.366 22.3462 179.344C22.2586 179.326 22.1761 179.293 22.0985 179.245C22.021 179.196 21.9533 179.138 21.8954 179.071C21.8372 178.999 21.7913 178.922 21.7578 178.839C21.7243 178.756 21.7053 178.668 21.7008 178.574C21.6967 178.484 21.7078 178.395 21.7339 178.307C21.7557 178.219 21.7933 178.138 21.8466 178.065C21.8998 177.991 21.9626 177.927 22.0349 177.873C22.1071 177.819 22.187 177.778 22.2744 177.748C22.3576 177.719 22.4464 177.704 22.5409 177.704C22.6315 177.708 22.7189 177.724 22.803 177.75C22.8874 177.781 22.9667 177.825 23.0408 177.882C23.1102 177.936 23.1722 178.001 23.2265 178.077C23.2763 178.15 23.3117 178.23 23.3328 178.319C23.3582 178.406 23.3687 178.495 23.3642 178.586C23.3556 178.677 23.3337 178.765 23.2987 178.85C23.2679 178.934 23.2214 179.011 23.1592 179.081C23.1009 179.147 23.0333 179.205 22.9564 179.255C22.879 179.301 22.7939 179.332 22.7011 179.349C22.6128 179.371 22.5251 179.374 22.438 179.361C22.347 179.352 22.261 179.328 22.1799 179.289C22.0947 179.249 22.019 179.199 21.9531 179.136C21.8871 179.074 21.8331 179.001 21.7911 178.92C21.7495 178.842 21.7222 178.756 21.7092 178.663C21.6966 178.574 21.6969 178.486 21.7103 178.399C21.7275 178.308 21.7581 178.221 21.802 178.14C21.8421 178.063 21.8958 177.994 21.963 177.932C22.0302 177.87 22.105 177.82 22.1874 177.782C22.2698 177.744 22.3578 177.721 22.4515 177.712C22.5409 177.704 22.5856 177.7 22.5856 177.7C22.5856 177.7 23.183 177.68 24.3778 177.642C25.5687 177.608 26.8835 177.566 28.3222 177.518C29.7613 177.474 31.2375 177.228 32.7508 176.782C34.2644 176.341 35.7037 175.7 37.0685 174.86C38.4375 174.02 39.8164 172.917 41.2051 171.552C42.5981 170.186 43.8673 168.323 45.0128 165.963C46.163 163.607 47.39 160.579 48.6937 156.879C50.0022 153.182 51.1976 149.357 52.2801 145.403C53.3622 141.444 54.089 138.28 54.4604 135.911C54.8319 133.542 55.1928 131.198 55.5431 128.878C55.8892 126.559 56.2166 124.316 56.5255 122.151C56.834 119.981 57.0771 117.686 57.2549 115.266C57.4284 112.847 57.6679 110.422 57.9734 107.99C58.2793 105.563 58.58 103.564 58.8756 101.991C59.1669 100.419 59.5318 99.0379 59.9704 97.8469C60.4128 96.6514 60.8686 95.5532 61.3379 94.5525C61.8071 93.5518 62.375 92.7114 63.0417 92.0312C63.7088 91.3553 64.4901 90.776 65.3857 90.2933C66.286 89.8145 67.0004 89.5997 67.529 89.649C68.0581 89.7026 68.5672 89.8417 69.0564 90.0663C69.5459 90.2952 70.0319 90.7154 70.5142 91.3268C70.997 91.9425 71.2577 92.549 71.2963 93.1461C71.3352 93.7475 71.2753 94.416 71.1163 95.1517C70.9578 95.8917 70.6572 96.4669 70.2144 96.8772C69.7721 97.2919 68.9416 97.4145 67.7231 97.2451C66.4999 97.0718 65.4946 96.6551 64.707 95.995C63.9147 95.3309 63.1101 94.4878 62.293 93.4657C61.4712 92.4397 60.5767 91.163 59.6093 89.6357C58.6416 88.1041 57.7548 86.4513 56.9491 84.6772C56.1395 82.9077 55.2806 80.8167 54.3723 78.4043C53.4683 75.9914 52.7322 73.5607 52.1642 71.1122C51.5965 68.6679 50.957 65.6833 50.2454 62.1582C49.5296 58.6336 49.0245 55.7094 48.7302 53.3854C48.4354 51.0573 48.0821 48.7002 47.6702 46.3143C47.258 43.9242 46.9286 41.5478 46.6821 39.1851C46.4314 36.8227 46.2054 34.9087 46.0041 33.4428C45.8023 31.9727 45.573 30.6446 45.3162 29.4586C45.0636 28.2722 44.7041 27.1129 44.2375 25.9807C43.7748 24.844 43.2659 23.7866 42.7106 22.8086C42.1554 21.8307 41.4856 20.8227 40.7014 19.7846C39.9172 18.7465 39.2351 17.9971 38.6552 17.5363C38.0791 17.0709 37.4496 16.632 36.7668 16.2195C36.0797 15.8074 35.471 15.3836 34.9406 14.9483C34.4146 14.5126 33.8462 14.1065 33.2354 13.7302C32.6247 13.3539 32.1466 12.9952 31.8012 12.6541C31.452 12.3177 31.1493 11.9062 30.8934 11.4195C30.6332 10.9332 30.474 10.6541 30.4158 10.5823C30.3532 10.5109 30.3008 10.4321 30.2584 10.346C30.2164 10.2641 30.1867 10.1768 30.1695 10.084C30.148 9.99159 30.1394 9.90013 30.1438 9.80961C30.144 9.71948 30.157 9.62817 30.1827 9.53566C30.2084 9.44314 30.2432 9.35622 30.2872 9.27488C30.3311 9.19354 30.3865 9.11971 30.4533 9.05339C30.5155 8.98322 30.5872 8.92289 30.6684 8.8724C30.7453 8.8223 30.8273 8.78032 30.9143 8.74644C31.006 8.71643 31.0966 8.69724 31.186 8.68889C31.2797 8.68014 31.3744 8.68202 31.47 8.69454C31.5615 8.70746 31.6517 8.73121 31.7409 8.76579C31.8257 8.80077 31.9052 8.84698 31.9793 8.90442C32.0573 8.95722 32.0962 8.98361 32.0962 8.98361Z" fill="#DFE8E6"/>
</svg>
