<svg width="68" height="182" viewBox="0 0 68 182" fill="none" xmlns="http://www.w3.org/2000/svg">
<path d="M36.2902 176.367C36.2902 176.367 36.0486 176.232 35.5653 175.963C35.0863 175.698 34.6822 175.393 34.3529 175.047C34.0278 174.697 33.6686 174.391 33.2751 174.13C32.8774 173.87 32.3706 173.443 31.7547 172.849C31.1389 172.259 30.5722 171.781 30.0547 171.413C29.533 171.046 28.9449 170.552 28.2906 169.933C27.632 169.309 26.8729 168.339 26.0132 167.023C25.1536 165.703 24.4522 164.46 23.9091 163.294C23.3702 162.123 22.8934 160.882 22.4785 159.57C22.0637 158.255 21.7622 156.894 21.574 155.488C21.3901 154.083 21.2596 152.594 21.1827 151.022C21.11 149.449 21.0565 147.456 21.0223 145.043C20.9923 142.629 20.8854 140.251 20.7015 137.91C20.5176 135.573 20.3851 133.206 20.3038 130.809C20.2225 128.413 19.9937 125.471 19.6174 121.985C19.2368 118.499 18.8818 115.527 18.5525 113.071C18.2189 110.614 17.7313 108.22 17.0898 105.887C16.444 103.554 15.8132 101.508 15.1974 99.7476C14.5815 97.9831 13.8973 96.3661 13.1446 94.8964C12.3918 93.4267 11.6947 92.1963 11.0532 91.2051C10.4117 90.2139 9.81725 89.4471 9.26983 88.9045C8.72241 88.3619 8.48505 88.3427 8.55775 88.8468C8.63474 89.3509 8.97688 89.477 9.58417 89.2249C10.1957 88.9728 10.7624 88.6118 11.2842 88.1419C11.8017 87.6719 12.2186 87.1016 12.5351 86.4308C12.8516 85.7601 13.2664 84.8757 13.7796 83.7777C14.2971 82.6797 14.7355 81.4515 15.0947 80.0929C15.454 78.7343 15.8859 76.8886 16.3906 74.556C16.8952 72.219 17.34 69.8842 17.7249 67.5515C18.1056 65.2146 18.5546 62.9417 19.0721 60.7329C19.5939 58.5242 20.137 56.2769 20.7015 53.9912C21.2703 51.7056 21.8455 49.3964 22.4272 47.0637C23.0131 44.731 24.0459 41.5823 25.5257 37.6176C27.0011 33.6529 28.5793 29.8485 30.26 26.2042C31.9408 22.5642 33.4996 19.5586 34.9366 17.1875C36.3736 14.8164 37.971 12.8768 39.7287 11.3686C41.4864 9.86051 43.2078 8.68562 44.8928 7.84398C46.5736 7.00234 48.3442 6.40209 50.2045 6.04321C52.0649 5.68433 53.8697 5.70996 55.6189 6.1201C57.3638 6.53024 58.8157 6.88059 59.9747 7.1711C61.1337 7.46161 61.756 7.62183 61.8415 7.65173C61.9271 7.67737 62.0062 7.71796 62.0789 7.7735C62.1516 7.82904 62.2136 7.89311 62.2649 7.96574C62.3162 8.04265 62.3547 8.12383 62.3804 8.20926C62.406 8.29471 62.4167 8.38445 62.4125 8.47842C62.4082 8.56815 62.3889 8.65573 62.3547 8.74118C62.3248 8.82663 62.2799 8.90352 62.22 8.97188C62.1601 9.04022 62.0917 9.0979 62.0147 9.1449C61.9377 9.19189 61.8543 9.22607 61.7645 9.24744C61.679 9.2688 61.5892 9.27521 61.4951 9.26666C61.4053 9.25385 61.3198 9.23035 61.2385 9.19617C61.1572 9.15771 61.0824 9.10645 61.014 9.04236C60.9498 8.98254 60.8942 8.91206 60.8472 8.83089C60.8044 8.75398 60.7766 8.67068 60.7638 8.58096C60.7467 8.49124 60.7445 8.40152 60.7574 8.3118C60.7745 8.22209 60.8044 8.13664 60.8472 8.05547C60.8857 7.97429 60.9391 7.90167 61.0076 7.83759C61.0717 7.77777 61.1444 7.72649 61.2257 7.68376C61.3069 7.64531 61.3946 7.62183 61.4887 7.61328C61.5785 7.60046 61.6662 7.60474 61.7517 7.6261C61.8415 7.64319 61.9249 7.67522 62.0019 7.72221C62.0832 7.76921 62.1537 7.8269 62.2136 7.89526C62.2735 7.96361 62.3205 8.04051 62.3547 8.12595C62.3889 8.20712 62.4082 8.29471 62.4125 8.3887C62.4167 8.47842 62.4082 8.56601 62.3868 8.65144C62.3611 8.74117 62.3226 8.82449 62.2713 8.90138C62.2243 8.97401 62.1644 9.0381 62.0917 9.09363C62.019 9.14917 61.9399 9.19191 61.8543 9.22182C61.7688 9.25172 61.679 9.26666 61.5849 9.26666C61.4951 9.26666 61.4502 9.26666 61.4502 9.26666C61.4502 9.26666 60.8536 9.23035 59.6604 9.15773C58.4715 9.08083 57.1585 8.99965 55.7215 8.9142C54.2845 8.82448 52.792 8.93129 51.2438 9.23462C49.6956 9.53368 48.203 10.0378 46.766 10.747C45.3248 11.4562 43.8493 12.426 42.3396 13.6564C40.8257 14.8869 39.3887 16.6236 38.0287 18.8665C36.6644 21.1052 35.1611 24.0061 33.5189 27.5692C31.8723 31.128 30.3263 34.8257 28.8808 38.6622C27.4352 42.503 26.4174 45.5855 25.8272 47.9096C25.237 50.2337 24.6596 52.5344 24.0951 54.8115C23.5349 57.0887 23.0003 59.291 22.4913 61.4186C21.9824 63.5505 21.5269 65.8127 21.1249 68.2052C20.7272 70.5977 20.2632 72.9902 19.7328 75.3826C19.2025 77.7709 18.7171 79.734 18.2766 81.272C17.8404 82.81 17.3486 84.1515 16.8012 85.2965C16.2495 86.4458 15.6935 87.4968 15.1332 88.4495C14.573 89.4022 13.9293 90.1862 13.2023 90.8014C12.4752 91.4123 11.6434 91.9165 10.7068 92.3138C9.76593 92.7068 9.03461 92.8542 8.51285 92.756C7.99109 92.6534 7.49713 92.4676 7.03096 92.1984C6.5648 91.925 6.12002 91.4614 5.69662 90.8078C5.27323 90.1499 5.07009 89.5218 5.08719 88.9237C5.1043 88.3213 5.22618 87.6612 5.45285 86.9435C5.67952 86.2215 6.03234 85.6768 6.51134 85.3093C6.99033 84.9376 7.82857 84.8928 9.02606 85.1748C10.2278 85.461 11.1901 85.9694 11.9129 86.7C12.6399 87.4348 13.3627 88.3491 14.0812 89.4428C14.8039 90.5408 15.5759 91.8951 16.397 93.5057C17.2181 95.1207 17.9473 96.8488 18.5845 98.6902C19.2261 100.527 19.8868 102.689 20.5668 105.176C21.2425 107.662 21.7493 110.151 22.0872 112.641C22.4251 115.128 22.7843 118.159 23.1649 121.735C23.5498 125.311 23.7808 128.269 23.8578 130.611C23.9347 132.956 24.0673 135.336 24.2555 137.75C24.4437 140.168 24.5506 142.565 24.5762 144.94C24.6062 147.315 24.6532 149.242 24.7174 150.72C24.7815 152.203 24.8863 153.547 25.0317 154.751C25.1729 155.956 25.423 157.144 25.7823 158.314C26.1373 159.489 26.5457 160.589 27.0076 161.615C27.4695 162.64 28.0425 163.706 28.7268 164.813C29.4111 165.919 30.0205 166.729 30.5551 167.241C31.0854 167.758 31.6713 168.254 32.3129 168.728C32.9586 169.202 33.5253 169.681 34.0129 170.164C34.4961 170.646 35.0243 171.104 35.5974 171.535C36.1705 171.967 36.6131 172.368 36.9253 172.74C37.2418 173.107 37.5048 173.545 37.7144 174.054C37.9282 174.562 38.0608 174.855 38.1121 174.932C38.1677 175.008 38.2126 175.092 38.2468 175.181C38.281 175.267 38.3024 175.357 38.311 175.451C38.3238 175.545 38.3238 175.636 38.311 175.726C38.3024 175.816 38.281 175.906 38.2468 175.995C38.2126 176.085 38.1698 176.168 38.1185 176.245C38.0672 176.322 38.0052 176.391 37.9325 176.45C37.864 176.514 37.7871 176.568 37.7015 176.611C37.6203 176.653 37.5347 176.687 37.4449 176.713C37.3508 176.734 37.2589 176.745 37.1691 176.745C37.075 176.745 36.9809 176.734 36.8868 176.713C36.797 176.692 36.7093 176.66 36.6238 176.617C36.5425 176.574 36.4677 176.521 36.3993 176.457C36.3266 176.397 36.2902 176.367 36.2902 176.367Z" fill="#DFE8E6"/>
</svg>
