<svg width="37" height="8" viewBox="0 0 37 8" fill="none" xmlns="http://www.w3.org/2000/svg">
<path d="M0.870145 5.07992C0.870145 5.07992 1.13854 4.82247 1.67534 4.30756C2.21647 3.79265 2.93075 3.26683 3.8182 2.73011C4.70997 2.18901 5.59309 1.77665 6.46755 1.49301C7.34201 1.21374 8.07794 1.03047 8.67534 0.943196C9.26841 0.860287 9.98919 1.04356 10.8377 1.49301C11.6905 1.94247 12.3074 2.64501 12.6883 3.60065C13.0693 4.55192 13.2771 5.0712 13.3117 5.15847C13.3463 5.24138 13.3658 5.33083 13.3701 5.42683C13.3745 5.51847 13.3658 5.60792 13.3442 5.6952C13.3182 5.78683 13.2792 5.86974 13.2273 5.94392C13.1797 6.02247 13.1191 6.08792 13.0455 6.14029C12.9719 6.19701 12.8918 6.24065 12.8052 6.2712C12.7186 6.30174 12.6277 6.31701 12.5325 6.31701C12.4416 6.31701 12.3528 6.30392 12.2662 6.27774C12.1797 6.2472 12.0996 6.20356 12.026 6.14683C11.9524 6.09883 11.8896 6.03556 11.8377 5.95701C11.7857 5.88283 11.7468 5.79992 11.7208 5.70829C11.6948 5.62101 11.684 5.52938 11.6883 5.43338C11.6927 5.34174 11.7121 5.25229 11.7468 5.16501C11.7771 5.0821 11.8225 5.00356 11.8831 4.92938C11.9437 4.85956 12.013 4.80065 12.0909 4.75265C12.1688 4.70465 12.2533 4.66974 12.3442 4.64792C12.4307 4.62611 12.5217 4.62174 12.6169 4.63483C12.7078 4.64356 12.7944 4.66538 12.8766 4.70029C12.9589 4.73956 13.0346 4.79192 13.1039 4.85738C13.1688 4.91847 13.2251 4.99047 13.2727 5.07338C13.316 5.15629 13.3442 5.24356 13.3572 5.3352C13.3745 5.42683 13.3766 5.51847 13.3637 5.6101C13.3463 5.70174 13.316 5.78683 13.2727 5.86538C13.2338 5.94829 13.1797 6.02247 13.1104 6.08792C13.0455 6.14901 12.9719 6.1992 12.8896 6.23847C12.8074 6.27774 12.7186 6.30174 12.6234 6.31047C12.5325 6.32356 12.4437 6.3192 12.3572 6.29738C12.2662 6.27992 12.1797 6.2472 12.0974 6.1992C12.0195 6.1512 11.9502 6.09447 11.8896 6.02901C11.829 5.9592 11.7987 5.92429 11.7987 5.92429C11.7987 5.92429 11.5758 5.71701 11.1299 5.30247C10.6797 4.88356 10.171 4.61956 9.60391 4.51047C9.04114 4.40138 8.4459 4.43192 7.8182 4.6021C7.19049 4.77665 6.43508 5.13229 5.55196 5.66901C4.66885 6.19701 3.87447 6.57883 3.16885 6.81447C2.46755 7.05447 2.07144 7.1941 1.98053 7.23338C1.88963 7.27265 1.79655 7.30101 1.70131 7.31847C1.60608 7.33592 1.513 7.34247 1.42209 7.3381C1.32253 7.32938 1.22729 7.30974 1.13638 7.2792C1.04114 7.25301 0.952396 7.21374 0.870145 7.16138C0.787894 7.10901 0.712136 7.04792 0.642872 6.9781C0.573608 6.90829 0.513002 6.83192 0.461054 6.74901C0.413435 6.6661 0.374474 6.57665 0.344171 6.48065C0.318197 6.38901 0.300881 6.29301 0.292223 6.19265C0.287894 6.10101 0.294387 6.00501 0.311703 5.90465C0.329019 5.80865 0.359322 5.71701 0.402612 5.62974C0.441573 5.5381 0.491357 5.4552 0.551963 5.38101C0.612569 5.30247 0.681833 5.23265 0.759755 5.17156C0.833348 5.11047 0.870145 5.07992 0.870145 5.07992Z" fill="#FA4616"/>
<path d="M26.1299 3.23417C26.1299 3.23417 26.329 2.9789 26.7273 2.46835C27.1212 1.96217 27.5736 1.55199 28.0844 1.23781C28.5952 0.923625 29.1429 0.679261 29.7273 0.504716C30.3117 0.325807 30.9372 0.201443 31.6039 0.131625C32.2706 0.0661707 32.8939 0.10108 33.474 0.236352C34.0584 0.375989 34.5952 0.659625 35.0844 1.08726C35.5693 1.5149 35.9632 2.31344 36.2662 3.4829C36.5736 4.64799 36.7316 5.27635 36.7403 5.36799C36.7532 5.45963 36.7489 5.55126 36.7273 5.6429C36.7099 5.73454 36.6775 5.81963 36.6299 5.89817C36.5866 5.97672 36.5303 6.04654 36.461 6.10763C36.3918 6.16872 36.3138 6.21672 36.2273 6.25163C36.1407 6.28654 36.0519 6.30835 35.961 6.31708C35.8701 6.32144 35.7792 6.31272 35.6883 6.2909C35.6017 6.26472 35.5195 6.22763 35.4416 6.17963C35.3636 6.12726 35.2965 6.06399 35.2403 5.98981C35.184 5.91563 35.1407 5.8349 35.1104 5.74763C35.0801 5.66035 35.0649 5.5709 35.0649 5.47926C35.0649 5.38763 35.0779 5.29817 35.1039 5.2109C35.1342 5.11926 35.1753 5.03635 35.2273 4.96217C35.2835 4.88799 35.3485 4.82472 35.4221 4.77235C35.5 4.71999 35.5822 4.68072 35.6688 4.65453C35.7597 4.62835 35.8506 4.61744 35.9416 4.62181C36.0325 4.62617 36.1212 4.64581 36.2078 4.68072C36.2944 4.71126 36.3723 4.75708 36.4416 4.81817C36.5151 4.8749 36.5758 4.94253 36.6234 5.02108C36.671 5.09963 36.7056 5.18472 36.7273 5.27635C36.7489 5.36799 36.7554 5.45963 36.7467 5.55126C36.7338 5.6429 36.7099 5.73017 36.6753 5.81308C36.6364 5.90035 36.5866 5.97672 36.526 6.04217C36.461 6.11199 36.3896 6.16872 36.3117 6.21235C36.2294 6.25599 36.1429 6.28654 36.0519 6.30399C35.961 6.32144 35.8701 6.32363 35.7792 6.31053C35.6883 6.29308 35.6017 6.26472 35.5195 6.22544C35.4372 6.18181 35.3658 6.12726 35.3052 6.06181C35.2403 5.99635 35.1883 5.91999 35.1493 5.83272C35.1061 5.74981 35.0844 5.70835 35.0844 5.70835C35.0844 5.70835 34.7078 5.30472 33.9545 4.49744C33.197 3.69453 32.4372 3.34326 31.6753 3.44363C30.9134 3.54399 30.3268 3.7229 29.9156 3.98035C29.5043 4.23344 29 4.48217 28.4026 4.72653C27.8052 4.9709 27.4675 5.11708 27.3896 5.16508C27.3074 5.21308 27.2229 5.25017 27.1364 5.27635C27.0454 5.30254 26.9524 5.31563 26.8571 5.31563C26.7706 5.31999 26.6818 5.31344 26.5909 5.29599C26.5 5.27853 26.4112 5.24799 26.3247 5.20435C26.2424 5.16508 26.1645 5.1149 26.0909 5.05381C26.0216 4.99708 25.9589 4.93163 25.9026 4.85744C25.8463 4.7789 25.8009 4.69817 25.7662 4.61526C25.7273 4.52799 25.7013 4.43853 25.6883 4.3469C25.671 4.25526 25.6667 4.16363 25.6753 4.07199C25.684 3.98035 25.7035 3.88872 25.7338 3.79708C25.7597 3.70981 25.7987 3.6269 25.8506 3.54835C25.9026 3.46981 25.961 3.39781 26.026 3.33235C26.0952 3.2669 26.1299 3.23417 26.1299 3.23417Z" fill="#FA4616"/>
</svg>
