<svg width="128" height="128" viewBox="0 0 128 128" fill="none" xmlns="http://www.w3.org/2000/svg">
<path d="M64 2.81144L76.4566 22.5582L77.1224 23.6135L78.2813 23.151L99.9657 14.4974L98.4365 37.7947L98.3548 39.0398L99.5642 39.3468L122.194 45.0917L107.263 63.0407L106.465 64L107.263 64.9593L122.194 82.9083L99.5642 88.6532L98.3548 88.9602L98.4365 90.2053L99.9657 113.503L78.2813 104.849L77.1224 104.386L76.4566 105.442L64 125.189L51.5434 105.442L50.8776 104.386L49.7187 104.849L28.0343 113.503L29.5635 90.2053L29.6452 88.9602L28.4358 88.6532L5.80622 82.9083L20.7372 64.9593L21.5351 64L20.7372 63.0407L5.80622 45.0917L28.4358 39.3468L29.6452 39.0398L29.5635 37.7947L28.0343 14.4974L49.7187 23.151L50.8776 23.6135L51.5434 22.5582L64 2.81144Z" fill="white" stroke="#FA4616" stroke-width="3"/>
<path d="M49.0065 52.2589C49.0065 52.2589 48.9784 52.6101 48.9221 53.3127C48.8658 54.0109 48.8052 54.6829 48.7403 55.3287C48.6797 55.9701 48.6299 56.6181 48.5909 57.2727C48.5476 57.9316 48.6169 58.56 48.7987 59.1578C48.9805 59.7556 49.329 60.1243 49.8442 60.264C50.355 60.4036 50.8247 60.3818 51.2533 60.1985C51.6818 60.0152 52.1039 59.7861 52.5195 59.5112C52.9307 59.2363 53.3355 58.9374 53.7338 58.6145C54.1364 58.2872 54.3918 57.7047 54.5 56.8669C54.6126 56.0247 54.6818 55.3134 54.7078 54.733C54.7338 54.157 54.6385 53.5767 54.4221 52.992C54.2013 52.4029 53.9978 51.8574 53.8117 51.3556C53.6256 50.8538 53.1775 50.3956 52.4675 49.981C51.7576 49.5709 51.1537 49.3985 50.6559 49.464C50.1537 49.5294 49.7316 49.9265 49.3896 50.6552C49.0476 51.3796 48.8766 51.7876 48.8766 51.8792C48.8766 51.9709 48.8615 52.0603 48.8312 52.1476C48.8009 52.2349 48.7576 52.3156 48.7013 52.3898C48.645 52.464 48.5779 52.525 48.5 52.573C48.4264 52.6254 48.3442 52.6647 48.2533 52.6909C48.1667 52.7127 48.0779 52.7214 47.987 52.717C47.8961 52.7127 47.8095 52.6909 47.7273 52.6516C47.6407 52.6167 47.5628 52.5709 47.4935 52.5141C47.4243 52.453 47.3658 52.381 47.3182 52.2981C47.2706 52.2196 47.2381 52.1345 47.2208 52.0429C47.1991 51.9556 47.1948 51.8661 47.2078 51.7745C47.2165 51.6829 47.2403 51.5956 47.2792 51.5127C47.3182 51.4298 47.3701 51.3556 47.4351 51.2901C47.5 51.2203 47.5736 51.1636 47.6559 51.12C47.7381 51.0807 47.8247 51.0523 47.9156 51.0349C48.0022 51.0218 48.0909 51.024 48.1818 51.0414C48.2684 51.0545 48.3528 51.085 48.4351 51.133C48.5173 51.1767 48.5888 51.2312 48.6494 51.2967C48.7143 51.3665 48.7662 51.4429 48.8052 51.5258C48.8398 51.6087 48.8615 51.6981 48.8701 51.7941C48.8831 51.8814 48.8788 51.9687 48.8572 52.056C48.8355 52.1476 48.8009 52.2327 48.7533 52.3112C48.7056 52.3898 48.6472 52.4596 48.5779 52.5207C48.5043 52.5818 48.4243 52.6276 48.3377 52.6581C48.2554 52.693 48.1667 52.7127 48.0714 52.717C47.9849 52.7214 47.8983 52.7105 47.8117 52.6843C47.7208 52.6581 47.6385 52.6189 47.5649 52.5665C47.487 52.5141 47.4221 52.4509 47.3701 52.3767C47.3139 52.3025 47.2706 52.2218 47.2403 52.1345C47.2143 52.0472 47.2013 52.0036 47.2013 52.0036C47.2013 52.0036 47.4437 51.2552 47.9286 49.7585C48.4091 48.2618 49.0455 47.2712 49.8377 46.7869C50.6256 46.3025 51.3745 46.1301 52.0844 46.2698C52.7944 46.4094 53.4004 46.6385 53.9026 46.957C54.4091 47.28 54.9719 47.7294 55.5909 48.3054C56.21 48.8858 56.6494 49.501 56.9091 50.1512C57.1688 50.8058 57.4221 51.6087 57.6688 52.56C57.9199 53.5156 58.0217 54.3381 57.974 55.0276C57.9264 55.7214 57.842 56.4283 57.7208 57.1483C57.5996 57.864 57.3658 58.5927 57.0195 59.3345C56.6732 60.0763 56.2208 60.6807 55.6623 61.1476C55.1039 61.6101 54.4914 62.0399 53.8247 62.437C53.1623 62.8341 52.3615 63.1418 51.4221 63.3599C50.4827 63.5781 49.7013 63.5999 49.0779 63.4254C48.4546 63.2465 47.829 62.9192 47.2013 62.4436C46.5693 61.9679 46.1277 61.4661 45.8766 60.9381C45.6299 60.4145 45.4459 59.8058 45.3247 59.112C45.2078 58.4181 45.1753 57.696 45.2273 56.9454C45.2792 56.1949 45.3788 55.3723 45.526 54.4778C45.6732 53.5876 45.9675 52.8654 46.4091 52.3112C46.8507 51.7614 47.0909 51.4472 47.1299 51.3687C47.1688 51.2945 47.2165 51.2269 47.2727 51.1658C47.3333 51.1047 47.3983 51.0501 47.4675 51.0021C47.5368 50.9541 47.6104 50.917 47.6883 50.8909C47.7706 50.8603 47.8528 50.8407 47.9351 50.832C48.013 50.8232 48.0952 50.8254 48.1818 50.8385C48.2641 50.8472 48.3442 50.869 48.4221 50.904C48.5 50.9345 48.5736 50.9738 48.6429 51.0218C48.7121 51.0741 48.7727 51.1309 48.8247 51.192C48.881 51.2574 48.9286 51.3294 48.9675 51.408C49.0022 51.4821 49.0303 51.5607 49.052 51.6436C49.0693 51.7265 49.0779 51.8072 49.0779 51.8858C49.0736 51.973 49.0606 52.0581 49.039 52.141C49.0173 52.2196 49.0065 52.2589 49.0065 52.2589Z" fill="#FA4616"/>
<path d="M51.0649 48.2401C51.0649 48.2401 51.1905 48.4059 51.4416 48.7376C51.697 49.0692 51.9632 49.6299 52.2403 50.4197C52.5173 51.2052 52.6883 51.875 52.7532 52.4292C52.8182 52.9834 52.8506 53.5092 52.8506 54.0067C52.8506 54.5041 52.7619 54.9776 52.5844 55.427C52.4026 55.8765 52.2056 56.4372 51.9935 57.1092C51.7771 57.7812 51.5 58.3376 51.1623 58.7783C50.8247 59.219 50.3333 59.6401 49.6883 60.0416C49.039 60.443 48.6126 60.6503 48.4091 60.6634C48.2056 60.6765 48.0368 60.6852 47.9026 60.6896C47.7727 60.6939 47.6429 60.683 47.513 60.6568C47.3831 60.6263 47.2576 60.5827 47.1364 60.5259C47.0195 60.4692 46.9091 60.3972 46.8052 60.3099C46.7056 60.227 46.6147 60.131 46.5325 60.0219C46.4545 59.9172 46.3896 59.8016 46.3377 59.675C46.2857 59.5528 46.2511 59.4263 46.2338 59.2954C46.2121 59.1645 46.2078 59.0314 46.2208 58.8961C46.2294 58.7652 46.2554 58.6365 46.2987 58.5099C46.342 58.3834 46.3983 58.2634 46.4675 58.1499C46.5411 58.0408 46.6255 57.9405 46.7208 57.8488C46.816 57.7572 46.9221 57.6765 47.039 57.6067C47.1515 57.5412 47.2727 57.491 47.4026 57.4561C47.5281 57.4212 47.8138 57.155 48.2597 56.6576C48.7013 56.1557 49.0216 55.6845 49.2208 55.2437C49.4156 54.803 49.526 54.3274 49.5519 53.8168C49.5822 53.3063 49.6039 52.7761 49.6169 52.2263C49.6299 51.6721 49.8831 51.3928 50.3766 51.3885C50.8701 51.3841 51.119 51.659 51.1234 52.2132C51.132 52.7674 50.5238 53.6074 49.2987 54.7332C48.0693 55.859 47.4264 56.3848 47.3701 56.3107C47.3138 56.2365 47.2727 56.1557 47.2467 56.0685C47.2164 55.9812 47.2013 55.8917 47.2013 55.8001C47.2013 55.7041 47.2164 55.6125 47.2467 55.5252C47.2727 55.4379 47.3138 55.3572 47.3701 55.283C47.4264 55.2088 47.4935 55.1456 47.5714 55.0932C47.645 55.0408 47.7273 55.0037 47.8182 54.9819C47.9048 54.9557 47.9935 54.9448 48.0844 54.9492C48.1797 54.9536 48.2684 54.9732 48.3506 55.0081C48.4372 55.043 48.5151 55.091 48.5844 55.1521C48.658 55.2088 48.7186 55.2787 48.7662 55.3616C48.8095 55.4401 48.842 55.5252 48.8636 55.6168C48.8853 55.7041 48.8896 55.7936 48.8766 55.8852C48.868 55.9812 48.8442 56.0707 48.8052 56.1536C48.7662 56.2365 48.7164 56.3128 48.6558 56.3827C48.5909 56.4481 48.5173 56.5027 48.4351 56.5463C48.3528 56.5899 48.2662 56.6183 48.1753 56.6314C48.0887 56.6488 48 56.6488 47.9091 56.6314C47.8182 56.6183 47.7316 56.5899 47.6493 56.5463C47.5671 56.5027 47.4935 56.4481 47.4286 56.3827C47.368 56.3128 47.3182 56.2365 47.2792 56.1536C47.2403 56.0707 47.2164 55.9834 47.2078 55.8917C47.1948 55.7957 47.1991 55.7041 47.2208 55.6168C47.2381 55.5252 47.2706 55.4401 47.3182 55.3616C47.3658 55.2787 47.4264 55.2088 47.5 55.1521C47.5693 55.091 47.6472 55.043 47.7338 55.0081C47.816 54.9732 47.9026 54.9536 47.9935 54.9492C48.0887 54.9448 48.1797 54.9557 48.2662 54.9819C48.3571 55.0037 48.4394 55.0408 48.513 55.0932C48.5909 55.1456 48.6299 55.1717 48.6299 55.1717C48.6299 55.1717 48.461 54.7987 48.1234 54.0525C47.7857 53.3063 47.7576 52.5339 48.039 51.7354C48.3247 50.9368 48.6623 50.2736 49.0519 49.7456C49.4459 49.2176 50.0887 49.0801 50.9805 49.3332C51.8809 49.5907 52.4307 50.1754 52.6299 51.0874C52.829 52.0037 52.9156 52.7456 52.8896 53.3128C52.8636 53.8845 52.7489 54.6045 52.5455 55.4728C52.342 56.3456 52.0216 57.0961 51.5844 57.7245C51.1472 58.3485 50.7338 58.8285 50.3442 59.1645C49.9632 59.4961 49.4935 59.8321 48.9351 60.1725C48.3809 60.5128 48.0368 60.6852 47.9026 60.6896C47.7727 60.6939 47.6429 60.683 47.513 60.6568C47.3831 60.6263 47.2576 60.5827 47.1364 60.5259C47.0195 60.4692 46.9091 60.3972 46.8052 60.3099C46.7056 60.227 46.6147 60.131 46.5325 60.0219C46.4545 59.9172 46.3896 59.8037 46.3377 59.6816C46.2857 59.555 46.2511 59.4263 46.2338 59.2954C46.2121 59.1645 46.2078 59.0336 46.2208 58.9027C46.2294 58.7674 46.2554 58.6365 46.2987 58.5099C46.342 58.3834 46.3983 58.2634 46.4675 58.1499C46.5411 58.0408 46.6255 57.9405 46.7208 57.8488C46.816 57.7572 46.9221 57.6787 47.039 57.6132C47.1515 57.5434 47.2727 57.491 47.4026 57.4561C47.5281 57.4212 47.7857 57.3776 48.1753 57.3252C48.5606 57.2772 48.8247 56.9761 48.9675 56.4219C49.1147 55.8634 49.2706 55.3267 49.4351 54.8117C49.5996 54.2968 49.671 53.7187 49.6493 53.0772C49.6277 52.4357 49.4978 51.7987 49.2597 51.1659C49.0173 50.5332 48.8983 50.0074 48.9026 49.5885C48.9069 49.1696 48.9004 48.9143 48.8831 48.8227C48.8658 48.7354 48.8593 48.6459 48.8636 48.5543C48.868 48.4627 48.8809 48.3732 48.9026 48.2859C48.9286 48.1987 48.9654 48.1136 49.013 48.0307C49.0563 47.9521 49.1104 47.8801 49.1753 47.8147C49.2403 47.7492 49.3117 47.6903 49.3896 47.6379C49.4632 47.5899 49.5433 47.5507 49.6299 47.5201C49.7208 47.4939 49.8117 47.4765 49.9026 47.4677C49.9892 47.459 50.0779 47.4634 50.1688 47.4808C50.2554 47.4939 50.342 47.5179 50.4286 47.5528C50.5108 47.5921 50.5887 47.6379 50.6623 47.6903C50.7359 47.747 50.8009 47.8125 50.8571 47.8867C50.9177 47.9565 50.9675 48.0328 51.0065 48.1157C51.0455 48.1987 51.0649 48.2401 51.0649 48.2401Z" fill="#FA4616"/>
<path d="M71.1493 50.9761C71.1493 50.9761 71.1104 51.3252 71.0325 52.0233C70.9545 52.7215 70.8009 53.339 70.5714 53.8757C70.342 54.4168 70.184 55.0582 70.0974 55.8001C70.0108 56.5462 70.0087 57.2532 70.0909 57.9208C70.1688 58.5884 70.4459 59.0772 70.9221 59.387C71.3983 59.6924 71.9134 59.8582 72.4675 59.8844C73.0216 59.9106 73.5584 59.8779 74.0779 59.7862C74.5974 59.6946 75.132 59.3761 75.6818 58.8306C76.2273 58.2895 76.5606 57.5848 76.6818 56.7164C76.803 55.8524 76.6602 55.0801 76.2532 54.3993C75.8463 53.7142 75.3355 53.219 74.7208 52.9135C74.1104 52.6037 73.0498 52.1542 71.539 51.5652C70.0325 50.9804 69.2792 50.6444 69.2792 50.5572C69.2792 50.4655 69.2944 50.3761 69.3247 50.2888C69.355 50.1972 69.3983 50.1164 69.4545 50.0466C69.5108 49.9724 69.5779 49.9092 69.6558 49.8568C69.7338 49.8088 69.816 49.7717 69.9026 49.7455C69.9935 49.7237 70.0822 49.715 70.1688 49.7193C70.2597 49.7281 70.3485 49.7499 70.4351 49.7848C70.5216 49.8197 70.5996 49.8677 70.6688 49.9288C70.7381 49.9899 70.7944 50.0597 70.8377 50.1382C70.8853 50.2168 70.9177 50.3019 70.9351 50.3935C70.9567 50.4852 70.961 50.5746 70.948 50.6619C70.9394 50.7535 70.9134 50.8408 70.8701 50.9237C70.8312 51.011 70.7792 51.0873 70.7143 51.1528C70.6537 51.2182 70.5822 51.2728 70.5 51.3164C70.4177 51.3557 70.3312 51.3841 70.2403 51.4015C70.1537 51.4146 70.0649 51.4124 69.974 51.395C69.8831 51.3775 69.7965 51.347 69.7143 51.3033C69.6364 51.2597 69.5649 51.203 69.5 51.1332C69.4394 51.0677 69.3896 50.9913 69.3506 50.9041C69.316 50.8212 69.2922 50.7339 69.2792 50.6422C69.2706 50.555 69.2771 50.4655 69.2987 50.3739C69.3203 50.2822 69.355 50.1972 69.4026 50.1186C69.4545 50.0401 69.5151 49.9724 69.5844 49.9157C69.6537 49.8546 69.7316 49.8066 69.8182 49.7717C69.9048 49.7412 69.9935 49.7237 70.0844 49.7193C70.171 49.715 70.2597 49.7259 70.3506 49.7521C70.4372 49.7782 70.5195 49.8175 70.5974 49.8699C70.671 49.9222 70.7359 49.9855 70.7922 50.0597C70.8442 50.1382 70.8853 50.2212 70.9156 50.3084C70.9416 50.3957 70.9545 50.4393 70.9545 50.4393C70.9545 50.4393 71.2597 50.2321 71.8701 49.8175C72.4805 49.403 73.1255 49.2153 73.8052 49.2546C74.4848 49.2982 75.119 49.4335 75.7078 49.6604C76.2965 49.8873 76.8442 50.2124 77.3506 50.6357C77.8571 51.0633 78.3636 51.6415 78.8701 52.3702C79.3766 53.1033 79.6861 53.8539 79.7987 54.6219C79.9113 55.3942 79.9307 56.0641 79.8571 56.6313C79.7792 57.203 79.6277 57.8641 79.4026 58.6146C79.1818 59.3608 78.8203 60.0633 78.3182 60.7222C77.816 61.3855 77.2164 61.9157 76.5195 62.3128C75.8225 62.7099 75.0866 62.9739 74.3117 63.1048C73.5325 63.2357 72.7706 63.2815 72.026 63.2422C71.2814 63.203 70.6342 63.1004 70.0844 62.9346C69.5303 62.7732 69.0541 62.531 68.6558 62.2081C68.2619 61.8852 67.8723 61.4182 67.487 60.8073C67.1017 60.1921 66.842 59.5768 66.7078 58.9615C66.5693 58.3506 66.5108 57.803 66.5325 57.3186C66.5498 56.8386 66.5866 56.3412 66.6429 55.8262C66.6948 55.3113 66.79 54.7615 66.9286 54.1768C67.0671 53.5964 67.2511 53.0575 67.4805 52.5601C67.71 52.0626 68.0346 51.5368 68.4545 50.9826C68.8745 50.4284 69.1061 50.1099 69.1493 50.027C69.1926 49.9484 69.2446 49.8764 69.3052 49.811C69.3658 49.7455 69.4329 49.6866 69.5065 49.6342C69.5801 49.5862 69.6602 49.547 69.7468 49.5164C69.829 49.4859 69.9156 49.4662 70.0065 49.4575C70.0931 49.4488 70.1797 49.451 70.2662 49.4641C70.3571 49.4728 70.4437 49.4946 70.526 49.5295C70.6082 49.5644 70.6861 49.6081 70.7597 49.6604C70.8333 49.7128 70.8983 49.7739 70.9545 49.8437C71.0151 49.9092 71.0649 49.9833 71.1039 50.0662C71.1429 50.1448 71.1732 50.2299 71.1948 50.3215C71.2121 50.4088 71.2208 50.4961 71.2208 50.5833C71.2208 50.6706 71.2078 50.7579 71.1818 50.8452C71.1602 50.9324 71.1493 50.9761 71.1493 50.9761Z" fill="#FA4616"/>
<path d="M74.3182 50.2428C74.3182 50.2428 74.4719 50.3999 74.7792 50.7141C75.0866 51.0283 75.2965 51.5105 75.4091 52.1607C75.526 52.8108 75.5931 53.3825 75.6104 53.8756C75.6277 54.3687 75.632 54.8574 75.6234 55.3418C75.6147 55.8261 75.5 56.3148 75.2792 56.8079C75.0628 57.301 74.6407 57.8116 74.013 58.3396C73.3853 58.8719 72.5779 59.221 71.5909 59.3868C70.6039 59.5527 69.9091 59.3432 69.5065 58.7585C69.1082 58.1738 68.9286 57.613 68.9675 57.0763C69.0108 56.5439 69.1299 56.053 69.3247 55.6036C69.5195 55.1541 69.6299 54.6196 69.6558 53.9999C69.6818 53.3759 69.6342 52.8981 69.513 52.5665C69.3918 52.2305 69.342 51.9948 69.3636 51.8596C69.381 51.7243 69.4156 51.5912 69.4675 51.4603C69.5195 51.3338 69.5844 51.2138 69.6623 51.1003C69.7446 50.9868 69.8377 50.8865 69.9416 50.7992C70.0455 50.7076 70.158 50.6312 70.2792 50.5701C70.4048 50.5134 70.5346 50.4698 70.6688 50.4392C70.803 50.4087 70.9372 50.3934 71.0714 50.3934C71.21 50.3978 71.3463 50.4174 71.4805 50.4523C71.6104 50.4872 71.7359 50.5374 71.8571 50.6028C71.9784 50.6683 72.0887 50.7468 72.1883 50.8385C72.2879 50.9345 72.3766 51.0392 72.4545 51.1527C72.5325 51.2705 72.5931 51.3927 72.6364 51.5192C72.684 51.6501 72.7143 51.7854 72.7273 51.925C72.7403 52.0603 72.6255 52.5163 72.3831 53.293C72.1407 54.0698 71.9545 54.8028 71.8247 55.4923C71.6948 56.1818 71.1277 56.197 70.1234 55.5381C69.1234 54.8836 68.6255 54.5105 68.6299 54.4188C68.6385 54.3272 68.6602 54.2378 68.6948 54.1505C68.7338 54.0676 68.7836 53.9912 68.8442 53.9214C68.9048 53.8516 68.9762 53.7948 69.0584 53.7512C69.1364 53.7032 69.2208 53.6705 69.3117 53.653C69.4026 53.6356 69.4935 53.6334 69.5844 53.6465C69.6753 53.6596 69.7619 53.6858 69.8442 53.725C69.9264 53.7687 70 53.8232 70.0649 53.8887C70.1299 53.9541 70.184 54.0283 70.2273 54.1112C70.2662 54.1941 70.2922 54.2814 70.3052 54.373C70.3182 54.4647 70.316 54.5563 70.2987 54.6479C70.2814 54.7396 70.2489 54.8247 70.2013 54.9032C70.158 54.9861 70.1017 55.0581 70.0325 55.1192C69.9632 55.1803 69.8874 55.2305 69.8052 55.2698C69.7186 55.3047 69.6299 55.3265 69.539 55.3352C69.4481 55.3396 69.3571 55.3308 69.2662 55.309C69.1797 55.2872 69.0974 55.2523 69.0195 55.2043C68.9416 55.1519 68.8723 55.0908 68.8117 55.021C68.7554 54.9468 68.7121 54.8661 68.6818 54.7788C68.6515 54.6916 68.6342 54.6021 68.6299 54.5105C68.6255 54.4188 68.6385 54.3272 68.6688 54.2356C68.6948 54.1483 68.7338 54.0676 68.7857 53.9934C68.842 53.9192 68.9069 53.8538 68.9805 53.797C69.0541 53.7447 69.1342 53.7054 69.2208 53.6792C69.3117 53.6487 69.4026 53.6356 69.4935 53.6399C69.5844 53.6443 69.6732 53.6618 69.7597 53.6923C69.8463 53.7228 69.9264 53.7665 70 53.8232C70.0693 53.8843 70.1299 53.9541 70.1818 54.0327C70.2294 54.1112 70.2641 54.1941 70.2857 54.2814C70.3074 54.373 70.3182 54.4188 70.3182 54.4188C70.3182 54.4188 70.0238 54.3796 69.4351 54.301C68.842 54.2268 68.6775 53.8363 68.9416 53.1294C69.2013 52.4181 69.342 51.9948 69.3636 51.8596C69.381 51.7243 69.4156 51.5912 69.4675 51.4603C69.5195 51.3338 69.5844 51.2138 69.6623 51.1003C69.7446 50.9868 69.8377 50.8865 69.9416 50.7992C70.0455 50.7076 70.158 50.6312 70.2792 50.5701C70.4048 50.5134 70.5346 50.4698 70.6688 50.4392C70.803 50.4087 70.9372 50.3934 71.0714 50.3934C71.21 50.3978 71.3463 50.4174 71.4805 50.4523C71.6104 50.4872 71.7359 50.5374 71.8571 50.6028C71.9784 50.6683 72.0887 50.7468 72.1883 50.8385C72.2879 50.9345 72.3766 51.0392 72.4545 51.1527C72.5325 51.2705 72.5931 51.3927 72.6364 51.5192C72.684 51.6501 72.7143 51.7854 72.7273 51.925C72.7403 52.0603 72.8052 52.3068 72.9221 52.6647C73.0346 53.0225 73.0628 53.5723 73.0065 54.3141C72.9502 55.0559 72.8268 55.6472 72.6364 56.0879C72.4416 56.5287 72.2424 56.9716 72.039 57.4167C71.8312 57.8661 71.4935 57.8574 71.026 57.3905C70.5584 56.9279 70.6732 56.557 71.3701 56.2778C72.0671 55.9985 72.4069 55.5578 72.3896 54.9556C72.3723 54.349 72.342 53.7359 72.2987 53.1163C72.2554 52.501 72.2641 51.9752 72.3247 51.5388C72.381 51.1025 72.4004 50.8428 72.3831 50.7599C72.3658 50.6814 72.3593 50.6028 72.3636 50.5243C72.368 50.4414 72.381 50.3607 72.4026 50.2821C72.4242 50.2036 72.4567 50.1294 72.5 50.0596C72.539 49.9898 72.5866 49.9243 72.6429 49.8632C72.6991 49.8065 72.7619 49.7563 72.8312 49.7127C72.9004 49.669 72.974 49.6341 73.052 49.6079C73.1255 49.5818 73.2035 49.5665 73.2857 49.5621C73.3636 49.5534 73.4416 49.5556 73.5195 49.5687C73.6017 49.5818 73.6797 49.6036 73.7533 49.6341C73.8268 49.669 73.8961 49.7105 73.961 49.7585C74.026 49.8065 74.0844 49.8632 74.1364 49.9287C74.1883 49.9898 74.2316 50.0574 74.2662 50.1316C74.3009 50.2058 74.3182 50.2428 74.3182 50.2428Z" fill="#FA4616"/>
<path d="M50.513 69.1397C50.513 69.1397 50.7922 69.1921 51.3506 69.2968C51.9048 69.4015 52.5736 69.4779 53.3571 69.5259C54.145 69.5739 55.0346 69.6175 56.026 69.6568C57.0173 69.6917 58.0974 69.7135 59.2662 69.7223C60.4351 69.7353 61.7035 69.7441 63.0714 69.7484C64.4437 69.7528 65.7013 69.6961 66.8441 69.5782C67.9913 69.4561 69.0844 69.3688 70.1234 69.3164C71.1623 69.2641 72.1537 69.227 73.0974 69.2052C74.0411 69.1833 75.0281 69.2095 76.0584 69.2837C77.0931 69.3579 77.6558 69.3862 77.7467 69.3688C77.8333 69.3513 77.9221 69.3492 78.013 69.3622C78.1082 69.3753 78.197 69.4015 78.2792 69.4408C78.3615 69.4844 78.4351 69.5368 78.5 69.5979C78.5649 69.6633 78.6169 69.7375 78.6558 69.8204C78.6991 69.9033 78.7273 69.9906 78.7402 70.0823C78.7532 70.1695 78.7511 70.259 78.7338 70.3506C78.7164 70.4423 78.6861 70.5295 78.6428 70.6124C78.5952 70.691 78.5368 70.763 78.4675 70.8284C78.4026 70.8895 78.3268 70.9375 78.2402 70.9724C78.158 71.0117 78.0714 71.0357 77.9805 71.0444C77.8853 71.0488 77.7944 71.0401 77.7078 71.0183C77.6169 70.9964 77.5325 70.9615 77.4545 70.9135C77.3766 70.8655 77.3095 70.8044 77.2532 70.7303C77.1926 70.6604 77.1472 70.5819 77.1169 70.4946C77.0866 70.4073 77.0693 70.3179 77.0649 70.2263C77.0606 70.1346 77.0714 70.0452 77.0974 69.9579C77.1277 69.8706 77.1688 69.7877 77.2208 69.7092C77.2727 69.635 77.3355 69.5717 77.4091 69.5193C77.487 69.4626 77.5693 69.4212 77.6558 69.395C77.7424 69.3644 77.8312 69.3513 77.9221 69.3557C78.0173 69.3557 78.1082 69.3732 78.1948 69.4081C78.2814 69.4386 78.3593 69.4822 78.4286 69.539C78.5022 69.5957 78.5628 69.6633 78.6104 69.7419C78.6623 69.8204 78.6991 69.9055 78.7208 69.9972C78.7424 70.0844 78.7511 70.1717 78.7467 70.259C78.7381 70.355 78.7164 70.4444 78.6818 70.5273C78.6428 70.6146 78.5931 70.6932 78.5325 70.763C78.4718 70.8328 78.4026 70.8895 78.3247 70.9332C78.2424 70.9812 78.2013 71.0052 78.2013 71.0052C78.2013 71.0052 77.5996 71.2757 76.3961 71.8168C75.1926 72.3623 74.1342 72.6459 73.2208 72.6677C72.3117 72.6895 71.3658 72.7266 70.3831 72.779C69.4004 72.827 68.2749 72.9143 67.0065 73.0408C65.7424 73.163 64.4199 73.2197 63.039 73.211C61.658 73.1979 60.368 73.1783 59.1688 73.1521C57.9697 73.1215 56.8355 73.0801 55.7662 73.0277C54.7013 72.9754 53.6017 72.8663 52.4675 72.7004C51.3377 72.5346 50.5519 72.2532 50.1104 71.8561C49.6775 71.459 49.4221 71.2343 49.3442 71.1819C49.2662 71.1295 49.1948 71.0684 49.1299 70.9986C49.0649 70.9288 49.0087 70.8503 48.961 70.763C48.9177 70.6801 48.8831 70.5928 48.8571 70.5012C48.8355 70.4095 48.8225 70.3157 48.8182 70.2197C48.8182 70.1281 48.829 70.0364 48.8506 69.9448C48.868 69.8488 48.8983 69.7593 48.9416 69.6764C48.9848 69.5892 49.0368 69.5106 49.0974 69.4408C49.158 69.3666 49.2273 69.3012 49.3052 69.2444C49.3831 69.1877 49.4654 69.1419 49.5519 69.107C49.6429 69.0721 49.7338 69.0481 49.8247 69.035C49.9199 69.0219 50.013 69.0197 50.1039 69.0284C50.1991 69.0372 50.29 69.059 50.3766 69.0939C50.4675 69.1244 50.513 69.1397 50.513 69.1397Z" fill="#FA4616"/>
<path d="M50.3701 71.2669C50.3701 71.2669 50.3095 71.6073 50.1883 72.288C50.0671 72.9644 49.9567 73.728 49.8571 74.5789C49.7532 75.4255 49.6948 76.2742 49.6818 77.1251C49.6732 77.976 49.7597 78.9644 49.9416 80.0902C50.1234 81.216 50.368 82.1869 50.6753 83.0029C50.9827 83.8233 51.2338 84.4451 51.4286 84.8684C51.6277 85.2917 51.8268 85.7149 52.026 86.1382C52.2251 86.5571 52.6948 87.0306 53.4351 87.5586C54.171 88.0822 54.7403 88.4597 55.1429 88.6909C55.5455 88.9178 55.9567 89.1426 56.3766 89.3651C56.7922 89.5877 57.21 89.8058 57.6299 90.0197C58.0498 90.2335 58.7294 90.3753 59.6688 90.4451C60.6126 90.5149 61.3896 90.5542 62 90.5629C62.6104 90.576 63.2316 90.5847 63.8636 90.5891C64.4913 90.5935 65.0714 90.5411 65.6039 90.432C66.132 90.3186 66.697 90.1789 67.2987 90.0131C67.8961 89.8473 68.5455 89.6138 69.2468 89.3127C69.9437 89.0117 70.6126 88.6822 71.2532 88.3244C71.8983 87.9622 72.513 87.5411 73.0974 87.0611C73.6861 86.5767 74.2121 86.0684 74.6753 85.536C75.1385 85.008 75.5087 84.48 75.7857 83.952C76.0628 83.424 76.3182 82.8175 76.5519 82.1324C76.7857 81.4517 77.0173 80.7142 77.2468 79.92C77.4805 79.1258 77.7078 78.3077 77.9286 77.4655C78.1537 76.6277 78.3074 75.8771 78.3896 75.2138C78.4719 74.5506 78.5325 73.9527 78.5714 73.4204C78.6061 72.8924 78.632 72.3382 78.6493 71.7578C78.6623 71.1775 78.4048 70.4793 77.8766 69.6633C77.3485 68.8386 77.0411 68.4087 76.9545 68.3738C76.868 68.3433 76.79 68.2975 76.7208 68.2364C76.6472 68.1796 76.5866 68.1098 76.539 68.0269C76.4913 67.9484 76.4567 67.8655 76.4351 67.7782C76.4134 67.6866 76.4091 67.5949 76.4221 67.5033C76.4307 67.4116 76.4524 67.3222 76.487 67.2349C76.526 67.152 76.5758 67.0756 76.6364 67.0058C76.7013 66.9404 76.7749 66.8858 76.8571 66.8422C76.9351 66.7942 77.0195 66.7636 77.1104 66.7506C77.2013 66.7331 77.2922 66.7309 77.3831 66.744C77.474 66.7615 77.5606 66.7898 77.6429 66.8291C77.7251 66.8727 77.7987 66.9273 77.8636 66.9927C77.9242 67.0626 77.9762 67.1389 78.0195 67.2218C78.0584 67.3047 78.0822 67.392 78.0909 67.4836C78.1039 67.5753 78.0996 67.6669 78.0779 67.7586C78.0606 67.8502 78.0281 67.9353 77.9805 68.0138C77.9329 68.0924 77.8745 68.1622 77.8052 68.2233C77.7359 68.2844 77.6602 68.3324 77.5779 68.3673C77.4913 68.4022 77.4026 68.424 77.3117 68.4327C77.2208 68.4371 77.1299 68.4284 77.039 68.4066C76.9524 68.3804 76.8701 68.3433 76.7922 68.2953C76.7143 68.2429 76.6472 68.1796 76.5909 68.1055C76.5346 68.0313 76.4913 67.9506 76.461 67.8633C76.4307 67.776 76.4156 67.6866 76.4156 67.5949C76.4156 67.5033 76.4286 67.4116 76.4545 67.32C76.4848 67.2327 76.5281 67.152 76.5844 67.0778C76.6364 67.0036 76.7013 66.9404 76.7792 66.888C76.8528 66.8356 76.9351 66.7964 77.026 66.7702C77.1126 66.744 77.2013 66.7331 77.2922 66.7375C77.3831 66.7418 77.4286 66.744 77.4286 66.744C77.4286 66.744 78.0433 66.9447 79.2727 67.3462C80.5022 67.7476 81.2359 68.16 81.474 68.5833C81.7121 69.0022 81.9026 69.4996 82.0455 70.0756C82.1883 70.6473 82.2489 71.2582 82.2273 71.9084C82.21 72.5629 82.1775 73.1891 82.1299 73.7869C82.0866 74.3891 82.0087 75.0982 81.8961 75.9142C81.7879 76.7302 81.619 77.5724 81.3896 78.4407C81.1602 79.3091 80.9199 80.1753 80.6688 81.0393C80.4177 81.9033 80.1364 82.7673 79.8247 83.6313C79.5087 84.4909 79.1385 85.2917 78.7143 86.0335C78.2857 86.7709 77.7684 87.4822 77.1623 88.1673C76.5563 88.848 75.8766 89.4895 75.1234 90.0917C74.3658 90.6938 73.6061 91.2044 72.8442 91.6233C72.0823 92.0422 71.2771 92.4284 70.4286 92.7818C69.5801 93.1353 68.8074 93.4058 68.1104 93.5935C67.4177 93.7811 66.6883 93.9404 65.9221 94.0713C65.1602 94.2066 64.4524 94.2698 63.7987 94.2611C63.145 94.248 62.4892 94.2306 61.8312 94.2087C61.1775 94.1869 60.5152 94.1498 59.8442 94.0975C59.1732 94.0495 58.4762 93.9469 57.7532 93.7898C57.0303 93.6371 56.4437 93.4429 55.9935 93.2073C55.5476 92.9717 55.0974 92.7295 54.6429 92.4807C54.1926 92.232 53.7294 91.9637 53.2532 91.6757C52.7814 91.3877 52.29 91.0582 51.7792 90.6873C51.2727 90.3164 50.7338 89.8298 50.1623 89.2277C49.5952 88.6255 49.1991 88.0909 48.974 87.624C48.7532 87.1615 48.5368 86.6924 48.3247 86.2167C48.1169 85.7367 47.9134 85.2349 47.7143 84.7113C47.5108 84.1877 47.3312 83.616 47.1753 82.9964C47.0152 82.3767 46.9178 81.792 46.8831 81.2422C46.8442 80.6924 46.7684 79.8458 46.6558 78.7026C46.5433 77.5549 46.5022 76.7411 46.5325 76.2611C46.5628 75.7855 46.6082 75.2837 46.6688 74.7557C46.7294 74.232 46.829 73.6691 46.9675 73.0669C47.1061 72.4647 47.3636 71.8756 47.7403 71.2996C48.1169 70.728 48.3268 70.4007 48.3701 70.3178C48.4134 70.2393 48.4654 70.1673 48.526 70.1018C48.5866 70.0364 48.6537 69.9775 48.7273 69.9251C48.8009 69.8771 48.881 69.8378 48.9675 69.8073C49.0498 69.7767 49.1364 69.7571 49.2273 69.7484C49.3139 69.7353 49.4004 69.7353 49.487 69.7484C49.5779 69.7615 49.6645 69.7855 49.7468 69.8204C49.829 69.8553 49.9069 69.8989 49.9805 69.9513C50.0541 70.0036 50.119 70.0647 50.1753 70.1346C50.2359 70.2 50.2857 70.2742 50.3247 70.3571C50.3636 70.4356 50.3939 70.5207 50.4156 70.6124C50.4372 70.6996 50.4459 70.7869 50.4416 70.8742C50.4416 70.9615 50.4307 71.0487 50.4091 71.136C50.3831 71.2233 50.3701 71.2669 50.3701 71.2669Z" fill="#FA4616"/>
</svg>
