<svg width="128" height="128" viewBox="0 0 128 128" fill="none" xmlns="http://www.w3.org/2000/svg">
<path d="M64 0L71.7128 20.2588L85.8893 3.85967L86.208 25.5346L105.138 14.9732L98.0246 35.4499L119.426 32L105.737 48.8088L127.028 52.8865L108.416 64L127.028 75.1135L105.737 79.1912L119.426 96L98.0246 92.5501L105.138 113.027L86.208 102.465L85.8893 124.14L71.7128 107.741L64 128L56.2872 107.741L42.1107 124.14L41.792 102.465L22.8616 113.027L29.9754 92.5501L8.57438 96L22.2626 79.1912L0.972305 75.1135L19.584 64L0.972305 52.8865L22.2626 48.8088L8.57438 32L29.9754 35.4499L22.8616 14.9732L41.792 25.5346L42.1107 3.85967L56.2872 20.2588L64 0Z" fill="#FA4616"/>
</svg>
